<svg   viewBox="0 0 34 26" fill="none" xmlns="http://www.w3.org/2000/svg">
<path d="M21.6516 0.103672C22.5357 0.428681 22.9896 1.41183 22.6683 2.30235L14.5284 24.8709C14.2054 25.7614 13.2312 26.2197 12.3489 25.8963C11.4649 25.5713 11.0109 24.5882 11.3323 23.6976L19.4721 1.12907C19.7952 0.238551 20.7693 -0.219711 21.6516 0.103672ZM4.10361 13.416L10.115 19.4839C10.778 20.1534 10.778 21.239 10.115 21.9085C9.96174 22.0669 9.77583 22.1933 9.56899 22.2798C9.36214 22.3662 9.13883 22.4109 8.91308 22.4109C8.68732 22.4109 8.46401 22.3662 8.25716 22.2798C8.05032 22.1933 7.86441 22.0669 7.71113 21.9085L0.497783 14.6299C0.177795 14.3 0 13.8667 0 13.4168C0 12.9669 0.177795 12.5336 0.497783 12.2037L7.71113 4.92354C7.86441 4.76512 8.05032 4.6387 8.25716 4.55225C8.46401 4.46579 8.68732 4.42116 8.91308 4.42116C9.13883 4.42116 9.36214 4.46579 9.56899 4.55225C9.77583 4.6387 9.96174 4.76512 10.115 4.92354C10.4348 5.25391 10.6124 5.6874 10.6124 6.13745C10.6124 6.5875 10.4348 7.02099 10.115 7.35136L4.10361 13.416ZM29.8969 13.416L23.8855 7.35136C23.5655 7.02144 23.3877 6.58815 23.3877 6.13826C23.3877 5.68837 23.5655 5.25509 23.8855 4.92517C24.0388 4.76674 24.2247 4.64033 24.4315 4.55387C24.6384 4.46742 24.8617 4.42279 25.0874 4.42279C25.3132 4.42279 25.5365 4.46742 25.7434 4.55387C25.9502 4.64033 26.1361 4.76674 26.2894 4.92517L33.5027 12.2037C34.1658 12.8732 34.1658 13.9588 33.5027 14.6299L26.2894 21.9069C26.1361 22.0653 25.9502 22.1917 25.7434 22.2781C25.5365 22.3646 25.3132 22.4092 25.0874 22.4092C24.8617 22.4092 24.6384 22.3646 24.4315 22.2781C24.2247 22.1917 24.0388 22.0653 23.8855 21.9069C23.566 21.577 23.3885 21.1441 23.3885 20.6946C23.3885 20.2451 23.566 19.8121 23.8855 19.4823L29.8969 13.416Z" fill="currentColor"/>
</svg>
