<svg width="34" height="16" viewBox="0 0 34 16" fill="none" xmlns="http://www.w3.org/2000/svg">
<path d="M8.76214 5.65571L11.1236 9.96429C11.2479 10.199 11.241 10.4338 11.1029 10.6686C10.9648 10.8895 10.7645 11 10.5021 11H8.67929C8.33405 11 8.00952 10.9033 7.70571 10.71C7.41571 10.5029 7.20167 10.2336 7.06357 9.90214L6.06929 7.43714C6.06929 7.42333 6.06238 7.41643 6.04857 7.41643C6.03476 7.41643 6.02786 7.42333 6.02786 7.43714L5.03357 9.90214C4.89548 10.2336 4.68143 10.5029 4.39143 10.71C4.10143 10.9033 3.7769 11 3.41786 11H1.67786C1.41548 11 1.21524 10.8895 1.07714 10.6686C0.939048 10.4338 0.932143 10.199 1.05643 9.96429L3.41786 5.65571C3.4731 5.55905 3.4731 5.46238 3.41786 5.36571L1.16 1.26429C1.03571 1.02952 1.04262 0.801667 1.18071 0.580714C1.31881 0.345952 1.51905 0.228571 1.78143 0.228571H3.60429C3.96333 0.228571 4.28786 0.332143 4.57786 0.539286C4.86786 0.732619 5.075 0.995 5.19929 1.32643L6.11071 3.64643C6.11071 3.66024 6.11762 3.66714 6.13143 3.66714C6.14524 3.66714 6.15214 3.66024 6.15214 3.64643L7.06357 1.32643C7.18786 0.995 7.395 0.732619 7.685 0.539286C7.975 0.332143 8.29952 0.228571 8.65857 0.228571H10.3986C10.661 0.228571 10.8612 0.345952 10.9993 0.580714C11.1374 0.801667 11.1443 1.02952 11.02 1.26429L8.76214 5.36571C8.7069 5.46238 8.7069 5.55905 8.76214 5.65571ZM13.3589 7.723C13.1366 7.723 12.9432 7.64083 12.7789 7.4765C12.6146 7.31217 12.5324 7.11883 12.5324 6.8965V6.6935C12.5324 6.47117 12.6146 6.27783 12.7789 6.1135C12.9432 5.94917 13.1366 5.867 13.3589 5.867H15.7224C15.8094 5.867 15.8529 5.8235 15.8529 5.7365V3.4165C15.8529 3.19417 15.9302 3.00083 16.0849 2.8365C16.2492 2.67217 16.4426 2.59 16.6649 2.59H17.0129C17.2352 2.59 17.4237 2.67217 17.5784 2.8365C17.7427 3.00083 17.8249 3.19417 17.8249 3.4165V5.7365C17.8249 5.8235 17.8684 5.867 17.9554 5.867H20.3189C20.5412 5.867 20.7346 5.94917 20.8989 6.1135C21.0632 6.27783 21.1454 6.47117 21.1454 6.6935V6.8965C21.1454 7.11883 21.0632 7.31217 20.8989 7.4765C20.7346 7.64083 20.5412 7.723 20.3189 7.723H17.9554C17.8684 7.723 17.8249 7.7665 17.8249 7.8535V10.1735C17.8249 10.3958 17.7427 10.5892 17.5784 10.7535C17.4237 10.9178 17.2352 11 17.0129 11H16.6649C16.4426 11 16.2492 10.9178 16.0849 10.7535C15.9302 10.5892 15.8529 10.3958 15.8529 10.1735V7.8535C15.8529 7.7665 15.8094 7.723 15.7224 7.723H13.3589ZM32.8579 0.228571C33.1479 0.228571 33.3688 0.345952 33.5207 0.580714C33.6864 0.801667 33.7279 1.05024 33.645 1.32643L28.9429 14.4593C28.8186 14.7907 28.6114 15.0531 28.3214 15.2464C28.0314 15.4536 27.7138 15.5571 27.3686 15.5571H25.5872C25.2972 15.5571 25.0693 15.4398 24.9036 15.205C24.7517 14.984 24.731 14.7424 24.8414 14.48L26.2086 11.1657C26.2224 11.1105 26.2293 11.0552 26.2293 11C26.2293 10.9448 26.2224 10.8895 26.2086 10.8343L22.6457 1.32643C22.5353 1.06405 22.5629 0.815476 22.7286 0.580714C22.8943 0.345952 23.1222 0.228571 23.4122 0.228571H25.4007C25.7322 0.228571 26.0291 0.339047 26.2914 0.56C26.5676 0.780952 26.7403 1.05714 26.8093 1.38857L28.0107 7.45786C28.0107 7.47167 28.0176 7.47857 28.0314 7.47857C28.0453 7.47857 28.0522 7.47167 28.0522 7.45786L29.6057 1.36786C29.6886 1.03643 29.8681 0.767143 30.1443 0.56C30.4205 0.339047 30.7312 0.228571 31.0764 0.228571H32.8579Z" fill="#BABFC2"/>
</svg>
